# xmcd
#
# Track frame offsets: 
#        150
#        13463
#        27338
#        40313
#        54375
#        67238
#        80813
#        95063
#        106988
#        118838
#        131588
#        144263
#        156488
#        168038
#        181388
#        193088
#        207225
#        218663
#        231113
#        244238
#        257213
#        272438
#        286163
#        299063
#
# Disc length: 4154 seconds
#
# Revision: 1
# Processed by: cddbd v1.5.2PL0 Copyright (c) Steve Scherf et al.
# Submitted via: ExactAudioCopy v1.0b1
#
DISCID=77103818
DTITLE=Various Artist - Blues, Boogie, and Bop - The 1940s Mercury Sess
DTITLE=ions - Disc 3 of 7
DYEAR=1995
DGENRE=Blues
TTITLE0=Jay McShann - Hootie Boogie (mono)
TTITLE1=Jay McShann - Garfield Avenue Blues (mono)
TTITLE2=Jay McShann - Crown Prince Boogie (mono)
TTITLE3=Jay McShann - Shipyard Woman Blues (mono)
TTITLE4=Jay McShann - Ernestine (mono)
TTITLE5=Jay McShann - Bucktown Boogie (mono)
TTITLE6=Jay McShann - Roll On, Katy (mono)
TTITLE7=Jay McShann - Voodoo Woman Blues (mono)
TTITLE8=Jay McShann - I Want A Little Girl (mono)
TTITLE9=Jay McShann - Jimtown Boogie (mono)
TTITLE10=Jay McShann - Have You Ever Loved A Woman (mono)
TTITLE11=Jay McShann - Gone With The Blues (mono)
TTITLE12=Jay McShann - Barfly Blues (mono)
TTITLE13=Jay McShann - Please Stop Playing Those Blues, Boy (mono)
TTITLE14=Jay McShann - All My Geets Are Gone (mono)
TTITLE15=Jay McShann - Strange Woman Blues (mono)
TTITLE16=Walter Brown - W.B. Blues (mono)
TTITLE17=Walter Brown - Sloppy Drunk (mono)
TTITLE18=Walter Brown - Lovin' A Beggar (mono)
TTITLE19=Walter Brown - Just Thinkin' (mono)
TTITLE20=Jay McShann - You Didn't Tell Me (mono)
TTITLE21=Jay McShann - Got You Beggin' (mono)
TTITLE22=Jay McShann - Duke And The Brute (mono)
TTITLE23=Jay McShann - Reach (mono)
EXTD=
EXTT0=
EXTT1=
EXTT2=
EXTT3=
EXTT4=
EXTT5=
EXTT6=
EXTT7=
EXTT8=
EXTT9=
EXTT10=
EXTT11=
EXTT12=
EXTT13=
EXTT14=
EXTT15=
EXTT16=
EXTT17=
EXTT18=
EXTT19=
EXTT20=
EXTT21=
EXTT22=
EXTT23=
PLAYORDER=
